<svg id="Layer_1" data-name="Layer 1" xmlns="http://www.w3.org/2000/svg" viewBox="0 0 398.68 126.41"><defs><style>.cls-1{font-size:94.06px;fill:#fff;font-family:Oswald-Bold, Oswald;font-weight:700;}.cls-2,.cls-3{fill:#61dafb;}.cls-3{font-size:28px;font-family:Oswald-Regular, Oswald;}.cls-4{letter-spacing:0em;}.cls-5{letter-spacing:0em;}</style></defs><title>react_tube</title><text class="cls-1" transform="translate(105.18 85.13) scale(0.73 1)">ReactTube</text><path class="cls-2" d="M205.35,127.43c0-6.35-7.95-12.36-20.13-16.09,2.81-12.42,1.56-22.3-3.94-25.47a8.56,8.56,0,0,0-4.37-1.09v4.35a4.52,4.52,0,0,1,2.23.51c2.66,1.52,3.81,7.32,2.91,14.78-.21,1.84-.57,3.77-1,5.74a94.64,94.64,0,0,0-12.4-2.13,95.26,95.26,0,0,0-8.12-9.76c6.37-5.92,12.34-9.16,16.4-9.16V84.76c-5.37,0-12.4,3.83-19.51,10.47-7.11-6.6-14.14-10.39-19.51-10.39v4.35c4,0,10,3.22,16.4,9.1a92.24,92.24,0,0,0-8.07,9.74,91.19,91.19,0,0,0-12.42,2.15c-.45-2-.78-3.85-1-5.66-.92-7.46.21-13.26,2.85-14.8a4.35,4.35,0,0,1,2.25-.51V84.86a8.71,8.71,0,0,0-4.41,1.09c-5.49,3.16-6.72,13-3.89,25.41-12.15,3.75-20.06,9.74-20.06,16.07s7.95,12.36,20.13,16.09c-2.81,12.42-1.56,22.3,3.94,25.47a8.58,8.58,0,0,0,4.39,1.09c5.37,0,12.4-3.83,19.51-10.47C164.63,166.21,171.66,170,177,170a8.71,8.71,0,0,0,4.41-1.09c5.49-3.16,6.72-13,3.89-25.41,12.11-3.73,20-9.74,20-16.07Zm-25.43-13c-.72,2.52-1.62,5.12-2.64,7.71-.8-1.56-1.64-3.12-2.56-4.69s-1.86-3.09-2.81-4.57c2.77.41,5.45.92,8,1.54ZM171,135.2c-1.52,2.64-3.09,5.14-4.71,7.46-2.91.25-5.86.39-8.83.39s-5.9-.14-8.79-.37q-2.43-3.49-4.73-7.42t-4.06-7.77c1.21-2.62,2.58-5.23,4-7.79s3.09-5.14,4.71-7.46c2.91-.25,5.86-.39,8.83-.39s5.9.14,8.79.37q2.43,3.49,4.73,7.42t4.06,7.77c-1.23,2.62-2.58,5.23-4,7.79Zm6.31-2.54c1.05,2.62,2,5.23,2.69,7.77-2.56.62-5.25,1.15-8,1.56,1-1.5,1.91-3,2.81-4.63s1.74-3.14,2.54-4.71Zm-19.8,20.84a80.51,80.51,0,0,1-5.43-6.25c1.76.08,3.55.14,5.37.14s3.65,0,5.43-.14A76.22,76.22,0,0,1,157.48,153.5ZM143,142c-2.77-.41-5.45-.92-8-1.54.72-2.52,1.62-5.12,2.64-7.71.8,1.56,1.64,3.12,2.56,4.69S142,140.51,143,142Zm14.43-40.64a80.51,80.51,0,0,1,5.43,6.25c-1.76-.08-3.55-.14-5.37-.14s-3.65,0-5.43.14A76.22,76.22,0,0,1,157.38,101.36Zm-14.45,11.5c-1,1.5-1.91,3-2.81,4.63s-1.74,3.12-2.54,4.69c-1.05-2.62-2-5.23-2.69-7.77,2.56-.61,5.25-1.13,8-1.54Zm-17.67,24.45c-6.91-2.95-11.39-6.82-11.39-9.88s4.47-7,11.39-9.88c1.68-.72,3.52-1.37,5.41-2a93.79,93.79,0,0,0,4.39,11.89,92.47,92.47,0,0,0-4.34,11.83c-1.93-.61-3.77-1.27-5.47-2Zm10.51,27.91c-2.66-1.52-3.81-7.32-2.91-14.78.21-1.84.57-3.77,1-5.74a94.64,94.64,0,0,0,12.4,2.13,95.26,95.26,0,0,0,8.12,9.76C148,162.5,142,165.74,138,165.74a4.66,4.66,0,0,1-2.21-.53Zm46.32-14.88c.92,7.46-.21,13.26-2.85,14.8a4.35,4.35,0,0,1-2.25.51c-4,0-10-3.22-16.4-9.1a92.24,92.24,0,0,0,8.07-9.74,91.19,91.19,0,0,0,12.42-2.15A54.67,54.67,0,0,1,182.09,150.34Zm7.52-13c-1.68.72-3.52,1.37-5.41,2a93.79,93.79,0,0,0-4.39-11.89,92.47,92.47,0,0,0,4.34-11.83c1.93.61,3.77,1.27,5.49,2,6.91,2.95,11.39,6.82,11.39,9.88s-4.49,7-11.4,9.88Z" transform="translate(-109.54 -80.71)"/><circle class="cls-2" cx="47.88" cy="46.72" r="8.92"/><path class="cls-2" d="M176.87,84.78" transform="translate(-109.54 -80.71)"/><text class="cls-3" transform="translate(200.68 118.37)">By: Anthony <tspan class="cls-4" x="126.28" y="0">P</tspan><tspan class="cls-5" x="139.58" y="0">eruso</tspan></text></svg>