<svg id="Layer_1" data-name="Layer 1" xmlns="http://www.w3.org/2000/svg" viewBox="0 0 396.08 118.38"><defs><style>.cls-1{fill:#fff;}.cls-2{fill:#61dafb;}</style></defs><title>react_tube</title><path class="cls-1" d="M218.82,89.65h15.24q9.09,0,13.74,4.42t4.65,15.71A41.35,41.35,0,0,1,251,121.91a12.79,12.79,0,0,1-5.33,7.05l7.59,36.87H240.62l-6.08-34.14h-3.48v34.14H218.82ZM234.47,122q3.69,0,5.16-2.68t1.47-8q0-5.17-1.37-7.76a4.89,4.89,0,0,0-4.72-2.59h-4V122Z" transform="translate(-109.54 -84.76)"/><path class="cls-1" d="M262,162q-3.62-4.75-3.62-13.4V128.68q0-8.65,3.62-13.4a12,12,0,0,1,10.11-4.75q6.56,0,9.84,4.61t3.28,13.54v10.91H269.39v9.59q0,6.68,2.67,6.68,2.94,0,2.94-5.27v-5.74h10.25v5.27q0,8.18-3.45,12.42t-9.67,4.23A12,12,0,0,1,262,162Zm13-29.58V127a8.58,8.58,0,0,0-.79-4.28,2.42,2.42,0,0,0-2.15-1.27,2.15,2.15,0,0,0-2,1.41,12.63,12.63,0,0,0-.68,5v4.61Z" transform="translate(-109.54 -84.76)"/><path class="cls-1" d="M294.5,164.85a12,12,0,0,1-3.14-5,19.23,19.23,0,0,1-1.06-6.35,20.72,20.72,0,0,1,2.08-9.83,18,18,0,0,1,4.89-6,51.81,51.81,0,0,1,7.11-4.37l2.19-1.13v-5.46a9.66,9.66,0,0,0-.51-3.57,1.83,1.83,0,0,0-1.81-1.22,1.89,1.89,0,0,0-1.85,1.13,8.12,8.12,0,0,0-.62,3.2l-.27,4-10.39-.56.07-1.79q.48-8.93,4-13.12t10.08-4.19a10.12,10.12,0,0,1,8.88,4.47q3.08,4.47,3.08,11.9v25.4a131.15,131.15,0,0,0,.68,13.54h-10q-.61-6.3-.89-7.71a15.17,15.17,0,0,1-2.73,6.21,5.91,5.91,0,0,1-4.85,2.45A7.05,7.05,0,0,1,294.5,164.85Zm10.63-9.22a8,8,0,0,0,1.44-1.93V138.84a14.1,14.1,0,0,0-4.48,5.22,13.92,13.92,0,0,0-1.74,6.44,8.92,8.92,0,0,0,.89,4.33,2.56,2.56,0,0,0,2.19,1.6A2.44,2.44,0,0,0,305.13,155.63Z" transform="translate(-109.54 -84.76)"/><path class="cls-1" d="M326.65,162q-3.62-4.8-3.62-13.36V128.68q0-8.65,3.59-13.4a11.9,11.9,0,0,1,10.08-4.75q6.42,0,9.87,4.14T350,126.89v5.74H339.29v-6.21a9.76,9.76,0,0,0-.65-4.28A2.1,2.1,0,0,0,336.7,121a2,2,0,0,0-1.88,1.46,14.73,14.73,0,0,0-.58,4.94v22.57a13.55,13.55,0,0,0,.62,4.89,2.05,2.05,0,0,0,3.83.19,10,10,0,0,0,.62-4.14v-7.24H350v6.58q0,8.09-3.49,12.32t-9.84,4.23A11.88,11.88,0,0,1,326.65,162Z" transform="translate(-109.54 -84.76)"/><path class="cls-1" d="M360.61,163.58a14.21,14.21,0,0,1-2.9-6.82,61,61,0,0,1-.72-10.11V121.53h-3.83V111.47H357V94.91h11.28v16.55h5.6v10.06h-5.6v28q0,4.42,3.83,4.42a7.1,7.1,0,0,0,1.67-.19,6.12,6.12,0,0,1,1-.19v12a26.25,26.25,0,0,1-6.08.85L367,166.4A8.31,8.31,0,0,1,360.61,163.58Z" transform="translate(-109.54 -84.76)"/><path class="cls-1" d="M385.69,102.16h-8.47V89.65H406.4v12.51H398v63.68h-12.3Z" transform="translate(-109.54 -84.76)"/><path class="cls-1" d="M412.07,163.25a19.18,19.18,0,0,1-1.91-9.17V111.47h11.14v40.82q0,4.14,2.19,4.14,1.09,0,3.42-1.69V111.47H438v54.37H426.9v-5q-4.65,5.93-9.36,5.93A6,6,0,0,1,412.07,163.25Z" transform="translate(-109.54 -84.76)"/><path class="cls-1" d="M456.15,161.7v4.14H445V89.65h11.14v25.77a16.67,16.67,0,0,1,4.1-3.62,8,8,0,0,1,4.1-1.27,7.1,7.1,0,0,1,6.7,4.37q2.19,4.37,2.19,11.62v23.42q0,7.81-2.25,12.32t-6.36,4.51Q460.38,166.78,456.15,161.7Zm5.26-6.49a12,12,0,0,0,.68-4.42v-25.4a10.44,10.44,0,0,0-.68-4q-.68-1.64-2-1.65t-3.28,1.79V155.4a4.38,4.38,0,0,0,3.08,1.5A2.3,2.3,0,0,0,461.41,155.21Z" transform="translate(-109.54 -84.76)"/><path class="cls-1" d="M482.39,162q-3.62-4.75-3.62-13.4V128.68q0-8.65,3.62-13.4a12,12,0,0,1,10.11-4.75q6.56,0,9.84,4.61t3.28,13.54v10.91H489.77v9.59q0,6.68,2.67,6.68,2.94,0,2.94-5.27v-5.74h10.25v5.27q0,8.18-3.45,12.42t-9.67,4.23A12,12,0,0,1,482.39,162Zm13-29.58V127a8.59,8.59,0,0,0-.79-4.28,2.42,2.42,0,0,0-2.15-1.27,2.15,2.15,0,0,0-2,1.41,12.62,12.62,0,0,0-.68,5v4.61Z" transform="translate(-109.54 -84.76)"/><path class="cls-2" d="M205.35,127.43c0-6.35-7.95-12.36-20.13-16.09,2.81-12.42,1.56-22.3-3.94-25.47a8.56,8.56,0,0,0-4.37-1.09v4.35a4.52,4.52,0,0,1,2.23.51c2.66,1.52,3.81,7.32,2.91,14.78-.21,1.84-.57,3.77-1,5.74a94.64,94.64,0,0,0-12.4-2.13,95.26,95.26,0,0,0-8.12-9.76c6.37-5.92,12.34-9.16,16.4-9.16V84.76c-5.37,0-12.4,3.83-19.51,10.47-7.11-6.6-14.14-10.39-19.51-10.39v4.35c4,0,10,3.22,16.4,9.1a92.24,92.24,0,0,0-8.07,9.74,91.19,91.19,0,0,0-12.42,2.15c-.45-2-.78-3.85-1-5.66-.92-7.46.21-13.26,2.85-14.8a4.35,4.35,0,0,1,2.25-.51V84.86a8.71,8.71,0,0,0-4.41,1.09c-5.49,3.16-6.72,13-3.89,25.41-12.15,3.75-20.06,9.74-20.06,16.07s7.95,12.36,20.13,16.09c-2.81,12.42-1.56,22.3,3.94,25.47a8.58,8.58,0,0,0,4.39,1.09c5.37,0,12.4-3.83,19.51-10.47C164.63,166.21,171.66,170,177,170a8.71,8.71,0,0,0,4.41-1.09c5.49-3.16,6.72-13,3.89-25.41,12.11-3.73,20-9.74,20-16.07Zm-25.43-13c-.72,2.52-1.62,5.12-2.64,7.71-.8-1.56-1.64-3.12-2.56-4.69s-1.86-3.09-2.81-4.57c2.77.41,5.45.92,8,1.54ZM171,135.2c-1.52,2.64-3.09,5.14-4.71,7.46-2.91.25-5.86.39-8.83.39s-5.9-.14-8.79-.37q-2.43-3.49-4.73-7.42t-4.06-7.77c1.21-2.62,2.58-5.23,4-7.79s3.09-5.14,4.71-7.46c2.91-.25,5.86-.39,8.83-.39s5.9.14,8.79.37q2.43,3.49,4.73,7.42t4.06,7.77c-1.23,2.62-2.58,5.23-4,7.79Zm6.31-2.54c1.05,2.62,2,5.23,2.69,7.77-2.56.62-5.25,1.15-8,1.56,1-1.5,1.91-3,2.81-4.63s1.74-3.14,2.54-4.71Zm-19.8,20.84a80.51,80.51,0,0,1-5.43-6.25c1.76.08,3.55.14,5.37.14s3.65,0,5.43-.14A76.22,76.22,0,0,1,157.48,153.5ZM143,142c-2.77-.41-5.45-.92-8-1.54.72-2.52,1.62-5.12,2.64-7.71.8,1.56,1.64,3.12,2.56,4.69S142,140.51,143,142Zm14.43-40.64a80.51,80.51,0,0,1,5.43,6.25c-1.76-.08-3.55-.14-5.37-.14s-3.65,0-5.43.14A76.22,76.22,0,0,1,157.38,101.36Zm-14.45,11.5c-1,1.5-1.91,3-2.81,4.63s-1.74,3.12-2.54,4.69c-1.05-2.62-2-5.23-2.69-7.77,2.56-.61,5.25-1.13,8-1.54Zm-17.67,24.45c-6.91-2.95-11.39-6.82-11.39-9.88s4.47-7,11.39-9.88c1.68-.72,3.52-1.37,5.41-2a93.79,93.79,0,0,0,4.39,11.89,92.47,92.47,0,0,0-4.34,11.83c-1.93-.61-3.77-1.27-5.47-2Zm10.51,27.91c-2.66-1.52-3.81-7.32-2.91-14.78.21-1.84.57-3.77,1-5.74a94.64,94.64,0,0,0,12.4,2.13,95.26,95.26,0,0,0,8.12,9.76C148,162.5,142,165.74,138,165.74a4.66,4.66,0,0,1-2.21-.53Zm46.32-14.88c.92,7.46-.21,13.26-2.85,14.8a4.35,4.35,0,0,1-2.25.51c-4,0-10-3.22-16.4-9.1a92.24,92.24,0,0,0,8.07-9.74,91.19,91.19,0,0,0,12.42-2.15A54.67,54.67,0,0,1,182.09,150.34Zm7.52-13c-1.68.72-3.52,1.37-5.41,2a93.79,93.79,0,0,0-4.39-11.89,92.47,92.47,0,0,0,4.34-11.83c1.93.61,3.77,1.27,5.49,2,6.91,2.95,11.39,6.82,11.39,9.88s-4.49,7-11.4,9.88Z" transform="translate(-109.54 -84.76)"/><circle class="cls-2" cx="47.88" cy="42.67" r="8.92"/><path class="cls-2" d="M176.87,84.78" transform="translate(-109.54 -84.76)"/><path class="cls-2" d="M312,176.4h5.21a6.5,6.5,0,0,1,4.56,1.39,5.62,5.62,0,0,1,1.48,4.3q0,4.34-3.25,4.79a4.59,4.59,0,0,1,2.94,1.89,7,7,0,0,1,.92,3.85,7.16,7.16,0,0,1-1.44,4.76,5.41,5.41,0,0,1-4.38,1.71h-6Zm5,9.46a3.51,3.51,0,0,0,2.72-.85,4.42,4.42,0,0,0,.76-2.93,4.19,4.19,0,0,0-.46-2.23,2.09,2.09,0,0,0-1.39-.91,14.24,14.24,0,0,0-2.74-.2h-.76v7.11Zm.25,10.95a4.46,4.46,0,0,0,2.17-.43,2.34,2.34,0,0,0,1.08-1.33,7.74,7.74,0,0,0,.31-2.44,5,5,0,0,0-.9-3.26,3.58,3.58,0,0,0-2.91-1.08h-1.88v8.54Z" transform="translate(-109.54 -84.76)"/><path class="cls-2" d="M326.15,200.84a7.11,7.11,0,0,0,2.31-.25.94.94,0,0,0,.63-1,4.93,4.93,0,0,0-.11-.73l-.36-1.68-.14-.56q-1.4-5.82-3.25-13.78h3l2.18,12.1,2.1-12.1h3L331.69,200a3.57,3.57,0,0,1-1.65,2.44,7.1,7.1,0,0,1-3.53.73h-.36Z" transform="translate(-109.54 -84.76)"/><path class="cls-2" d="M337.55,184.27h3v3.19h-3Zm0,8.93h3v3.19h-3Z" transform="translate(-109.54 -84.76)"/><path class="cls-2" d="M353.14,176.4h3.05L361,199.08h-3l-1-5.71h-4.62l-1.09,5.71h-3Zm3.44,14.7-1.9-10.22-1.88,10.22Z" transform="translate(-109.54 -84.76)"/><path class="cls-2" d="M363.08,182.9h3v1.6a5.78,5.78,0,0,1,3.95-1.82,2,2,0,0,1,1.88,1,4.57,4.57,0,0,1,.56,2.35v13.1h-3V186.84a2.65,2.65,0,0,0-.28-1.37,1.1,1.1,0,0,0-1-.45,3.52,3.52,0,0,0-2.1,1v13h-3Z" transform="translate(-109.54 -84.76)"/><path class="cls-2" d="M377,198.34a4.52,4.52,0,0,1-.84-2.9V184.88h-1.71v-2h1.71v-4.73h3v4.73h2.6v2h-2.6v10.36a2.28,2.28,0,0,0,.31,1.37,1.43,1.43,0,0,0,1.18.39,6.92,6.92,0,0,0,1.09-.08v2.21a14,14,0,0,1-2.07.17A3.29,3.29,0,0,1,377,198.34Z" transform="translate(-109.54 -84.76)"/><path class="cls-2" d="M384.08,176.4h3v8.18a6,6,0,0,1,4.06-1.9,2,2,0,0,1,1.86,1,4.66,4.66,0,0,1,.55,2.35v13.1h-3V186.84a2.65,2.65,0,0,0-.28-1.37,1.1,1.1,0,0,0-1-.45,3.48,3.48,0,0,0-2.18,1.06v13h-3Z" transform="translate(-109.54 -84.76)"/><path class="cls-2" d="M397.23,197.78a7.66,7.66,0,0,1-1.08-4.44v-4.7a7.65,7.65,0,0,1,1.08-4.44,5.1,5.1,0,0,1,7.28,0,7.65,7.65,0,0,1,1.08,4.44v4.7a7.66,7.66,0,0,1-1.08,4.44,5.1,5.1,0,0,1-7.28,0Zm4.83-1.16a2.36,2.36,0,0,0,.45-1.18,16.69,16.69,0,0,0,.08-1.9v-5.07a17.09,17.09,0,0,0-.08-1.92,2.38,2.38,0,0,0-.45-1.19,1.39,1.39,0,0,0-1.18-.48,1.43,1.43,0,0,0-1.19.48,2.3,2.3,0,0,0-.46,1.19,17.09,17.09,0,0,0-.08,1.92v5.07a16.69,16.69,0,0,0,.08,1.9,2.28,2.28,0,0,0,.46,1.18,1.43,1.43,0,0,0,1.19.48A1.39,1.39,0,0,0,402.06,196.62Z" transform="translate(-109.54 -84.76)"/><path class="cls-2" d="M408.33,182.9h3v1.6a5.78,5.78,0,0,1,3.95-1.82,2,2,0,0,1,1.88,1,4.57,4.57,0,0,1,.56,2.35v13.1h-3V186.84a2.65,2.65,0,0,0-.28-1.37,1.1,1.1,0,0,0-1-.45,3.52,3.52,0,0,0-2.1,1v13h-3Z" transform="translate(-109.54 -84.76)"/><path class="cls-2" d="M420.37,200.84a7.11,7.11,0,0,0,2.31-.25.94.94,0,0,0,.63-1,5,5,0,0,0-.11-.73l-.36-1.68-.14-.56q-1.4-5.82-3.25-13.78h3l2.18,12.1,2.1-12.1h3L425.91,200a3.57,3.57,0,0,1-1.65,2.44,7.1,7.1,0,0,1-3.53.73h-.36Z" transform="translate(-109.54 -84.76)"/><path class="cls-2" d="M438.26,176.4h5.63a5.25,5.25,0,0,1,4.27,1.6,7.14,7.14,0,0,1,1.33,4.68,6.11,6.11,0,0,1-1.43,4.31,5.38,5.38,0,0,1-4.14,1.54h-2.49v10.56h-3.16Zm4.62,9.86a6.05,6.05,0,0,0,2.17-.31,2,2,0,0,0,1.11-1.06,5.57,5.57,0,0,0,.34-2.18,9.34,9.34,0,0,0-.25-2.55,1.78,1.78,0,0,0-1-1.15,6,6,0,0,0-2.34-.34h-1.48v7.59Z" transform="translate(-109.54 -84.76)"/><path class="cls-2" d="M452.88,198.59a3.78,3.78,0,0,1-1.46-2.11,13,13,0,0,1-.42-3.64v-3.7a9,9,0,0,1,1-4.91q1.05-1.55,3.74-1.55a4.59,4.59,0,0,1,3,.81,3.92,3.92,0,0,1,1.32,2.28,19.31,19.31,0,0,1,.32,4V191H454v2.16q0,1.46.07,2.18a2.31,2.31,0,0,0,.45,1.22,1.48,1.48,0,0,0,1.25.49,1.37,1.37,0,0,0,1.33-.66,4.41,4.41,0,0,0,.35-2v-1h2.91v.62a6,6,0,0,1-1.09,3.89,4.21,4.21,0,0,1-3.47,1.34A5.08,5.08,0,0,1,452.88,198.59Zm4.56-9.17V188a6.26,6.26,0,0,0-.32-2.37,1.33,1.33,0,0,0-1.36-.71,1.62,1.62,0,0,0-1.11.34,1.9,1.9,0,0,0-.52,1.11,13.29,13.29,0,0,0-.14,2.23v.87Z" transform="translate(-109.54 -84.76)"/><path class="cls-2" d="M463.18,182.9h3v2.3a5.86,5.86,0,0,1,1.72-1.93,3.42,3.42,0,0,1,1.86-.56l.48,0V186a4.73,4.73,0,0,0-1.65-.34,2.45,2.45,0,0,0-1.3.35,3.58,3.58,0,0,0-1.11,1.22v11.82h-3Z" transform="translate(-109.54 -84.76)"/><path class="cls-2" d="M472.53,198.35A4.57,4.57,0,0,1,472,196V182.9h3v12.21a2.73,2.73,0,0,0,.28,1.39,1.08,1.08,0,0,0,1,.46,3.52,3.52,0,0,0,2.1-1v-13h3v16.18h-3v-1.6a5.78,5.78,0,0,1-3.95,1.82A2,2,0,0,1,472.53,198.35Z" transform="translate(-109.54 -84.76)"/><path class="cls-2" d="M485,198.07a5.11,5.11,0,0,1-1.39-3.3l2.49-.76a5.36,5.36,0,0,0,.71,2.32,1.68,1.68,0,0,0,1.47.76,1.77,1.77,0,0,0,1.29-.49,1.66,1.66,0,0,0,.5-1.25,3.16,3.16,0,0,0-1.32-2.38L486,190.6a6.74,6.74,0,0,1-1.47-1.69,4.22,4.22,0,0,1-.52-2.17,3.93,3.93,0,0,1,1.12-3,4.25,4.25,0,0,1,3.05-1.06,3.67,3.67,0,0,1,2.9,1.19,5.19,5.19,0,0,1,1.22,3.07l-2,.76a5.45,5.45,0,0,0-.64-2.09,1.48,1.48,0,0,0-1.34-.71,1.54,1.54,0,0,0-1.6,1.65,2.09,2.09,0,0,0,.81,1.62l2.86,2.63a8.9,8.9,0,0,1,1.68,2,4.53,4.53,0,0,1,.62,2.41,3.89,3.89,0,0,1-1.2,3.08,4.77,4.77,0,0,1-3.28,1.06A4.27,4.27,0,0,1,485,198.07Z" transform="translate(-109.54 -84.76)"/><path class="cls-2" d="M495.64,197.78a7.66,7.66,0,0,1-1.08-4.44v-4.7a7.65,7.65,0,0,1,1.08-4.44,5.1,5.1,0,0,1,7.28,0,7.65,7.65,0,0,1,1.08,4.44v4.7a7.66,7.66,0,0,1-1.08,4.44,5.1,5.1,0,0,1-7.28,0Zm4.83-1.16a2.36,2.36,0,0,0,.45-1.18,16.69,16.69,0,0,0,.08-1.9v-5.07a17.09,17.09,0,0,0-.08-1.92,2.38,2.38,0,0,0-.45-1.19,1.39,1.39,0,0,0-1.18-.48,1.43,1.43,0,0,0-1.19.48,2.3,2.3,0,0,0-.46,1.19,17.09,17.09,0,0,0-.08,1.92v5.07a16.69,16.69,0,0,0,.08,1.9,2.28,2.28,0,0,0,.46,1.18,1.43,1.43,0,0,0,1.19.48A1.39,1.39,0,0,0,500.47,196.62Z" transform="translate(-109.54 -84.76)"/></svg>